<?xml version="1.0"?>
<svg xmlns="http://www.w3.org/2000/svg" viewBox="0 0 512 512" width="512" height="512"><g id="outline"><path d="M64.109,321.315l8,48A8,8,0,0,0,75.2,374.4l62,46.5,7.21,21.63A8,8,0,0,0,152,448a8.106,8.106,0,0,0,1.32-.109l3.835-.64-4.739,14.218A8,8,0,0,0,152,464v24a8,8,0,0,0,8,8H352a8,8,0,0,0,7.758-9.953l-4.823-19.155,49.1,28.054a8,8,0,0,0,10.625-2.508s16.649-25.18,16.728-25.372c.031-.073,8.377-33.126,8.377-33.126a8,8,0,0,0-4.183-9.095l-16-8a8,8,0,0,0-9.235,1.5s-17.455,17.837-17.843,18.89l-19.452-10.87,32.931-37.049a7.994,7.994,0,0,0,1.981-4.518l8-80a8.022,8.022,0,0,0-.115-2.365l-12.524-62.619a66.54,66.54,0,0,0-49.112-51.505l-15.962-3.991-44.574-14.858L288,158.111V146l4.8-3.6A8,8,0,0,0,296,136V120a8,8,0,0,0,8-8V81.256A163.585,163.585,0,0,0,312,30.7V24a8,8,0,0,0-8-8H262.627A62.2,62.2,0,0,0,219.3,33.405L206.311,39.9a40.361,40.361,0,0,0,0,72.2l1.755.877A8,8,0,0,0,216,120v16a8,8,0,0,0,3.2,6.4L224,146v12.111L218.205,169.7,182.459,184h-5.237a77.123,77.123,0,0,0-76.073,64.443l-4.7,28.187L65.753,315A8,8,0,0,0,64.109,321.315ZM168,465.3l7.007-21.022,26.308-4.384a8,8,0,0,0,6.274-5.362l5.317-15.951,58.758,23.5-6.32,9.48A8,8,0,0,0,267,462.247L289.194,480H168Zm10.458-173.142,3.421,27.377-17.227-9.627ZM244.8,233.6a18.761,18.761,0,0,0,22.4,0,72.4,72.4,0,0,0,27.971-46.778l.792.264a203.383,203.383,0,0,1-15.526,75.153,204.836,204.836,0,0,1-14.007,27.687l-2.43-.486V264a8,8,0,0,0-16,0v25.754l-23.069,5.767-29.353-14.676a7.974,7.974,0,0,0-2.506-.767L192,271.5V197.416l24.928-9.971A72.4,72.4,0,0,0,244.8,233.6Zm76.625,233.661L311.406,477.28l-28.681-22.945,10.409-15.613,7.677-2.559c.071-.024.137-.055.207-.081l28.014,16.008c-.062.111-.13.217-.187.332Zm-54.008-99.927,19.252-21.178a220.384,220.384,0,0,0,39.952-62.451l-14.313,50.1A8.013,8.013,0,0,0,312,336v56.248ZM328,337.12l10.042-35.147L344,313.889v51.548l-16,22.4Zm0-139.255a204.039,204.039,0,0,1-53.169,137.529l-21.752,23.927-16.093-8.993,10.446-10.445a220.353,220.353,0,0,0,64.4-147.508L328,197.766ZM199.214,329.22l-3.822-30.58,25.03,12.515a8,8,0,0,0,5.518.606l30.254-7.564.652.131a204.8,204.8,0,0,1-20.728,24.24L222.47,342.216Zm-44.5-6.538L233.8,366.877l-8.457,12.685a8,8,0,1,0,13.312,8.876l9.155-13.732,11.247,6.285-9.714,14.571a8,8,0,1,0,13.312,8.876l10.412-15.618,27.711,15.486-11.771,18.925-3.537,1.179a8,8,0,0,0-4.127,3.152l-.61.915L212.5,401.182l-22.839-22.839A8,8,0,0,0,184,376H163.845l-25.656-32.069ZM331.314,480l2.343-2.343a7.986,7.986,0,0,0,1.5-2.079l3.637-7.272L341.736,480Zm74.172-2.65L308.619,422l6.143-9.877,97.781,54.643Zm12.094-43.616,5.1,2.551-3.908,15.631-12.431-6.946ZM373.809,217.122a50.381,50.381,0,0,1,13.822,25.828L399.92,304.4,392.3,380.623,358.746,418.37l-23.51-13.137L358.51,372.65A8,8,0,0,0,360,368V312a7.994,7.994,0,0,0-.845-3.578L344,278.111V202.246l6.329,1.582A50.557,50.557,0,0,1,373.809,217.122ZM224,104V88h64v16H273.889l-14.311-7.155a8,8,0,0,0-7.156,0L238.111,104ZM200,76a24.228,24.228,0,0,1,13.466-21.789l14.112-7.056a7.967,7.967,0,0,0,2.079-1.5A46.321,46.321,0,0,1,262.627,32h33.367a147.591,147.591,0,0,1-5.876,40H216a8,8,0,0,0-8,8V94.06A24.214,24.214,0,0,1,200,76Zm40,44a7.994,7.994,0,0,0,3.578-.845L256,112.944l12.422,6.211A7.994,7.994,0,0,0,272,120h8v12l-16,12H248l-16-12V120Zm.534,38.4a8,8,0,0,0,4.8,1.6h21.334a8,8,0,0,0,4.8-1.6L272,158v2a7.994,7.994,0,0,0,.845,3.578l7.1,14.2A56.272,56.272,0,0,1,257.6,220.8a2.682,2.682,0,0,1-3.2,0,56.269,56.269,0,0,1-22.347-43.017l7.1-14.2A7.994,7.994,0,0,0,240,160v-2ZM110.247,285a7.982,7.982,0,0,0,1.644-3.682l5.04-30.241A61.122,61.122,0,0,1,176,200.012v69.243l-27.758,35.688a7.928,7.928,0,0,0-4,5.149l-22.553,29a8,8,0,0,0,.068,9.908l32,40A8,8,0,0,0,160,392h20.687l18.16,18.161L193.934,424.9l-36.506,6.085-5.839-17.515a8,8,0,0,0-2.789-3.87L87.364,363.523l-6.885-41.315Z"/></g></svg>
