<svg id="Outline" height="512" viewBox="0 0 512 512" width="512" xmlns="http://www.w3.org/2000/svg"><path d="m96 264h40v-16h-40v-184h280v184h-32v16h32v32h16v-32h48v48h16v-288h-16v24h-48v-24h-16v24h-280v-24h-16v24h-48v-24h-16v464h16v-24h48v24h16v-24h40v-16h-40zm344-200v184h-48v-184zm-360 0v184h-48v-184zm-48 384v-184h48v184z"/><path d="m48 88h16v16h-16z"/><path d="m48 128h16v16h-16z"/><path d="m48 168h16v16h-16z"/><path d="m48 208h16v16h-16z"/><path d="m48 288h16v16h-16z"/><path d="m48 328h16v16h-16z"/><path d="m48 368h16v16h-16z"/><path d="m48 408h16v16h-16z"/><path d="m408 88h16v16h-16z"/><path d="m408 128h16v16h-16z"/><path d="m408 168h16v16h-16z"/><path d="m408 208h16v16h-16z"/><path d="m408 288h16v16h-16z"/><path d="m474.885 432h-18.885v-72a8 8 0 0 0 -2.343-5.657l-40-40a8 8 0 0 0 -8.187-1.932l-45.47 15.156-45.47-15.156a8 8 0 0 0 -8.187 1.932l-40 40a8 8 0 0 0 -2.343 5.657v72h-18.885a21.115 21.115 0 0 0 -3.891 41.869l117.3 21.994a8 8 0 0 0 2.948 0l117.3-21.994a21.115 21.115 0 0 0 -3.887-41.869zm-160.724-102.847 43.309 14.436a7.992 7.992 0 0 0 5.06 0l43.309-14.436 34.161 34.161v36.686h-160v-36.686zm-34.161 86.847h160v16h-160zm195.828 42.143-115.828 21.717-115.828-21.717a5.115 5.115 0 0 1 .943-10.143h229.77a5.115 5.115 0 0 1 .943 10.143z"/><path d="m240 232a56 56 0 1 0 -56-56 56.064 56.064 0 0 0 56 56zm0-96a40 40 0 1 1 -40 40 40.045 40.045 0 0 1 40-40z"/><path d="m200 352v-97.628a87.9 87.9 0 0 0 80 0v17.628a24 24 0 0 0 48 0v-96a88 88 0 0 0 -176 0v176a24 24 0 0 0 0 48v88a8 8 0 0 0 8 8h32a8 8 0 0 0 8-8v-88a24 24 0 0 0 0-48zm112-80a8 8 0 0 1 -16 0v-28.167a88.786 88.786 0 0 0 16-17.295zm-72-168a72 72 0 1 1 -72 72 72.081 72.081 0 0 1 72-72zm-72 122.538a88.786 88.786 0 0 0 16 17.295v108.167h-16zm16 253.462h-16v-80h16zm16-96h-48a8 8 0 0 1 0-16h48a8 8 0 0 1 0 16z"/><path d="m240 200a24 24 0 1 0 -24-24 24.027 24.027 0 0 0 24 24zm0-32a8 8 0 1 1 -8 8 8.009 8.009 0 0 1 8-8z"/></svg>