<svg height="511pt" viewBox="-37 0 511 511.92424" width="511pt" xmlns="http://www.w3.org/2000/svg"><path d="m19.226562 416.328125c-4.742187 11.371094-25.375 63.519531-16.628906 89.761719.964844 2.890625 3.398438 5.050781 6.386719 5.660156 2.988281.613281 6.074219-.417969 8.09375-2.699219 2.023437-2.28125 2.675781-5.46875 1.710937-8.359375-5.460937-16.378906 7.417969-57.316406 16.816407-79.277344.453125-1.058593.6875-2.203124.6875-3.355468 0-39.675782 0-39.675782 32.265625-80.011719 14.644531-18.328125 17.25-42.078125 8.199218-68.386719 11.390626 5.699219 23.101563 10.734375 35.074219 15.078125 2.050781 6.042969 1.96875 12.609375-.238281 18.597657-2.085938 4.210937-.375 9.316406 3.828125 11.421874.105469.050782 10.375 5.433594 4.253906 23.800782-.964843 2.601562-.59375 5.507812.984375 7.789062 1.582032 2.277344 4.175782 3.640625 6.953125 3.652344 1.660157-.003906 3.277344-.519531 4.632813-1.480469.085937-.046875 8.632812-4.4375 36.894531-3.183593-.054687 1.449218-.035156 2.9375 0 4.429687-12.949219-.046875-25.503906 4.441406-35.492187 12.683594-2.972657 2.863281-5.4375 6.214843-7.28125 9.910156-8.117188-3.429687-17.101563-4.230469-25.699219-2.296875-15.085938 3.5625-27.828125 15.550781-37.871094 35.644531-2.109375 4.214844-.398437 9.339844 3.816406 11.449219 4.214844 2.109375 9.339844.398438 11.449219-3.816406 7.628906-15.257813 16.492188-24.210938 26.347656-26.625 5.925782-1.289063 12.117188-.480469 17.511719 2.285156-.078125 1.164062-.296875 2.246094-.296875 3.457031 0 4.710938 3.824219 8.53125 8.535156 8.53125 4.710938 0 8.535156-3.820312 8.535156-8.53125-.429687-6.503906 1.960938-12.875 6.558594-17.492187 7.757813-5.78125 17.300782-8.65625 26.957032-8.125.4375 1.308594.941406 2.589844 1.515624 3.839844 1.363282 2.726562 4.078126 4.519531 7.121094 4.703124 3.046875.183594 5.953125-1.273437 7.632813-3.816406 1.683593-2.546875 1.875-5.792968.511719-8.519531-5.660157-11.320313-1.582032-29.945313.46875-36.167969.707031-2.140625.539062-4.476562-.46875-6.5-6.25-12.503906-16.164063-36.421875-16.164063-47.390625.125-2.933593 1.589844-5.648437 3.976563-7.359375 1.300781-1.046875 2.859374-1.71875 4.511718-1.933594.03125.25.046875.507813.042969.761719.28125 6.789063 1.792969 13.472657 4.464844 19.722657.089843.195312.132812.410156.234375.59375.738281 1.84375 1.464844 3.667968 2.320312 5.488281.066406.199219.195313.355469.277344.550781 5.292969 11.195312 12.242188 21.535156 20.617188 30.660156 2.644531 4.003906 1.621093 24.839844-2.148438 43.714844-.023438.128906.023438.246094 0 .375-.019531.128906-.097656.226562-.113281.351562-7.542969 67.882813-57.699219 69.1875-59.785157 69.210938-3.488281 0-6.625 2.121094-7.925781 5.359375-15.023437 37.570313-61.292969 45.875-61.761719 45.960937-4.578124.847657-7.628906 5.210938-6.855468 9.800782.769531 4.59375 5.078125 7.71875 9.679687 7.027344 4.035157-.761719 8.019531-1.773438 11.929688-3.027344-.386719 2.574218.167969 5.203125 1.5625 7.402344 1.832031 2.5625 4.742187 4.140624 7.890625 4.273437 2.851562.003906 5.515625-1.421875 7.097656-3.796875 1.585938-2.371094 1.875-5.378906.78125-8.015625.835938-2.832031 1.851562-5.613281 3.035156-8.320313 17.457032-8.640624 31.628906-22.722656 40.371094-40.128906 25.546875-3.640625 47.683594-19.585937 59.234375-42.664062 22.445313-2.234375 44.332031-8.363282 64.675781-18.109375 5.699219-2.355469 11.433594-4.65625 17.203125-6.851563.878907.019532 1.714844.046875 2.671875.046875 19.488282 0 53.742188-3.96875 69.726563-19.675781 16.972656-15.386719 31.710937-33.074219 43.78125-52.546875 4.804687-5.992187 6.492187-13.90625 4.542969-21.335937-1.019532-2.992188-2.777344-5.679688-5.105469-7.816407 18.425781-21.746093 28.246093-49.488281 27.597656-77.984375 0-69.84375 0-125.011718-81.867187-161.394531l-16.648438-7.445313c-65.828125-29.527343-102.097656-45.796874-168.089844-29.304687-45.460937 11.367187-62.585937 27.714844-75.085937 39.648437-5.03125 5.578126-11.136719 10.085938-17.945313 13.257813-.496094.175781-.980468.378906-1.449218.609375-16.949219 5.625-23.265626 25.070312-17.972657 53.546875-3.832031 2.710937-7.429687 5.742187-10.753906 9.058594-6.621094 5.59375-10.679687 13.640625-11.253906 22.289062.1875 4.996094.882812 9.957031 2.070312 14.8125.355469 1.722657.726563 3.5 1.0625 5.328125.015625.136719.035157.273438.058594.410156.707031 3.621094 1.070313 7.296876 1.074219 10.984376-.109375 7.75-2.253906 18.15625-17.917969 29.910156-11.128906 8.34375-15.640625 16.980468-13.417969 25.660156 4.097656 15.996094 30.667969 21.800781 41.207032 23.484375.515624.300781 1.175781.683594 1.929687 1.117187 11.367187 20.441407 20.507813 48.617188 2.871094 70.699219-34.871094 43.585938-35.980469 45.804688-36.003907 88.933594zm152.195313-87.980469c-10.933594-.75-21.914063-.417968-32.777344.996094.578125-9.339844-2.800781-18.488281-9.308593-25.207031 1.023437-4.5625 1.289062-9.265625.777343-13.917969 9.78125 1.964844 19.691407 3.195312 29.65625 3.675781 3.457031 10.625 7.628907 21.003907 12.476563 31.070313-.25.953125-.535156 2.117187-.824219 3.382812zm40.675781-30.824218c20.070313 2.171874 39.167969 6.238281 48.5625 15.636718 4.257813 4.054688 9.402344 7.054688 15.023438 8.765625-5.988282 4.542969-12.421875 8.464844-19.207032 11.699219-9.085937 3.765625-18.894531 5.464844-28.71875 4.976562.511719-12.117187-.765624-23.515624-6.230468-28.976562-3.5-3.738281-6.660156-7.792969-9.429688-12.105469zm79.171875 69.296874c-.554687.203126-1.097656.449219-1.648437.65625-.351563.113282-.691406.25-1.023438.40625-6.101562 2.308594-12.15625 4.746094-18.171875 7.234376-16.253906 7.570312-33.425781 12.992187-51.082031 16.125 2.160156-7.429688 3.671875-15.03125 4.523438-22.71875.753906-3.777344 1.542968-8.191407 2.222656-12.863282 13.019531.679688 26.023437-1.632812 38.007812-6.761718 13.503906-6.261719 25.644532-15.121094 35.726563-26.070313 1.414062-1.597656 2.910156-3.121094 4.484375-4.5625 4.640625-4.472656 8.726562-9.488281 12.15625-14.945313 3.996094-7.285156 11.253906-12.207031 19.503906-13.226562 2.402344-.214844 4.820312.195312 7.011719 1.195312-.71875 2.144532-2.355469 6.417969-6.003907 14.414063l-.203124.445313c-.046876.117187-.113282.214843-.152344.332031-1.332032 2.839843-2.648438 5.726562-3.976563 8.65625-9.761719 21.511719-19.855469 43.765625-41.375 51.683593zm104.859375-64.429687c-11.433594 18.492187-25.417968 35.273437-41.546875 49.847656-9.0625 6.847657-19.8125 11.113281-31.109375 12.335938 10.320313-12.808594 18.648438-27.101563 24.710938-42.394531.863281-1.902344 1.742187-3.792969 2.609375-5.6875 10.386719-2.898438 20.617187-6.328126 30.652343-10.265626 4.433594-2.378906 8.628907-5.171874 12.535157-8.34375 1.191406-.929687 2.453125-1.980468 3.742187-3.089843.390625.285156.714844.652343.941406 1.078125.222657.671875-.0625 2.804687-2.535156 6.519531zm-316.339844-225.242187c7.449219 5.105468 10.683594 14.484374 7.964844 23.097656-1.515625 6.007812-5.480468 7.980468-13.078125 8.53125-1.679687-10.128906-3.050781-26.988282 5.113281-31.628906zm-16.050781 166.378906c-.269531-.152344-.648437-.359375-.898437-.5-3.117188-1.757813-4.976563-2.886719-5.042969-2.925782-.835937-.472656-1.75-.796874-2.695313-.964843l6.65625-5.453125c3.597657-3 4.105469-8.339844 1.136719-11.964844-2.96875-3.621094-8.304687-4.175781-11.953125-1.238281l-16.171875 13.257812c-5.136719-2.070312-8.609375-4.269531-9.007812-5.847656 0-.023437.304687-2.695313 7.121093-7.808594 9.003907-6.296875 16.1875-14.859375 20.824219-24.820312 7.921875 7.960937 12.894531 9.460937 16.71875 9.460937 8.902344-.847656 16.699219-6.328125 20.511719-14.417968 3.792969-7.082032 8.203125-21.898438-4.882812-41.523438-3.824219-7.308594-11.378907-11.90625-19.632813-11.945312-4.496094.367187-8.761719 2.144531-12.1875 5.078124 1.359375-2.6875 3.1875-5.113281 5.394531-7.164062 3.273438-3.234375 6.851563-6.148438 10.679688-8.710938 9.894531-.070312 28.894531-1.34375 33.996094-21.648437 3.664062-12.570313.4375-26.140625-8.492188-35.714844 4.089844-3.117187 7.976562-6.492187 11.640625-10.101562 11.738281-11.214844 26.355469-25.164063 67.445313-35.433594 60.265624-15.0625 92.574218-.566406 156.960937 28.316406l16.703125 7.464844c71.730469 31.882813 71.730469 77.203125 71.730469 145.800781.789062 27.820313-10.1875 54.679688-30.234375 73.984375l-.023438.023438c-2.332031 2.210937-4.574218 4.144531-6.605468 5.734375-2.867188 2.285156-5.890626 4.367187-9.042969 6.230468-.667969.265626-6.441407 2.53125-15.019531 5.34375.742187-1.910156 1.148437-3.933593 1.191406-5.980468-.746094-7.820313-6.542969-14.222656-14.25-15.742188-11.910156-3.605468-30.582032-.652344-44.070313 19.570313-2.667969 4.277343-5.832031 8.222656-9.425781 11.757812-.722656.652344-1.382812 1.414063-2.097656 2.125-6.574219-.160156-12.902344-2.511719-17.988282-6.679687-11.144531-11.144532-29.25-16.425782-49.382812-19.328125 19.21875-6.617188 34.746094-21.046875 42.742188-39.734375 2.273437-5.691406 9.199218-23.011719-.539063-33.273438-11.414063-12.03125-35.195313-3.933594-56.171875 3.210938l-5.117188 1.730468c-20.199218 6.75-42.261718-14.804687-42.46875-15.003906-3.347656-3.234375-8.671874-3.1875-11.960937.101563-3.292969 3.292969-3.339844 8.617187-.105469 11.964843 1.199219 1.203126 29.675782 29.21875 59.933594 19.128907l5.210938-1.761719c8.511718-2.898438 34.417968-11.722656 38.296874-7.625.019532.023438 1.910157 3.085938-2.933593 15.1875-9.203125 23.03125-33.472657 31.878906-50.859375 35.277344-.566406-2.125-.882813-4.308594-.945313-6.507813.210938-4.867187-1.578125-9.613281-4.949219-13.128906-3.191406-3.101563-7.488281-4.796875-11.9375-4.707031-14.164062.695312-25.402343 12.191406-25.777343 26.367187 0 1.097657.179687 2.347657.285156 3.535157-7.996094-.460938-15.945313-1.554688-23.773437-3.265626-3.480469-.890624-7.039063-1.945312-10.695313-3.164062-4.957031-1.640625-9.992187-3.582031-14.964844-5.625l10.847657-8.839844c2.363281-1.929687 3.519531-4.96875 3.03125-7.980468-.484376-3.007813-2.539063-5.53125-5.390626-6.613282-2.847656-1.085937-6.0625-.566406-8.425781 1.359375l-17.539062 14.296875c-3.15625-1.507812-6.203125-3-9.03125-4.4375l7.722656-6.242187c3.664063-2.964844 4.234375-8.339844 1.269531-12.003907-2.964844-3.667968-8.339844-4.234374-12.003906-1.273437zm-6.992187-77.828125c5.347656-9.332031 9.472656-11.765625 10.558594-11.820313.78125-.023437 2.386718 1.132813 4.554687 4.378906 5.46875 6.285157 7.203125 14.988282 4.566406 22.890626-1.078125 2.710937-3.0625 4.964843-5.617187 6.375-5.15625-3.917969-9.660156-8.632813-13.328125-13.972657-.105469-2.628906-.351563-5.25-.734375-7.851562zm0 0"/><path d="m157.191406 188.765625c3.328125.015625 6.640625-.503906 9.800782-1.546875 28.371093-9.460938 31.433593-20.746094 31.433593-25.160156-.621093-14.234375-8.976562-26.988282-21.78125-33.234375-4.417969-2.886719-8.316406-6.507813-11.519531-10.699219-6.6875-7.613281-14.273438-16.246094-25.601562-16.613281-9.3125.316406-18.03125 4.632812-23.929688 11.84375-12.640625 12.792969-14.054688 32.894531-3.328125 47.332031 9.621094 16.003906 26.320313 26.445312 44.925781 28.078125zm-29.527344-63.339844c2.8125-3.515625 6.757813-5.9375 11.164063-6.855469h.148437c3.941407.128907 8.71875 5.5625 13.332032 10.816407 4.566406 5.933593 10.238281 10.925781 16.707031 14.703125 6.59375 3.164062 11.175781 9.40625 12.214844 16.648437-5.558594 5.046875-12.316407 8.589844-19.632813 10.289063-9.945312 3.28125-26.515625-5.902344-34.808594-19.3125-6.320312-7.75-5.949218-18.976563.871094-26.292969zm0 0"/><path d="m348.359375 92.960938c40.277344 19.199218 38.890625 92.136718 38.875 92.871093-.121094 4.707031 3.59375 8.625 8.300781 8.75l.230469.003907c4.621094 0 8.402344-3.679688 8.523437-8.300782.097657-3.449218 1.707032-84.753906-48.589843-108.730468-2.753907-1.339844-6.015625-1.097657-8.542969.632812-2.53125 1.730469-3.9375 4.683594-3.6875 7.738281.25 3.050781 2.117188 5.738281 4.890625 7.035157zm0 0"/></svg>