<svg id="_x33_0" enable-background="new 0 0 64 64" height="512" viewBox="0 0 64 64" width="512" xmlns="http://www.w3.org/2000/svg"><g><path d="m34 16c0-1.654-1.346-3-3-3s-3 1.346-3 3 1.346 3 3 3 3-1.346 3-3zm-3 1c-.551 0-1-.449-1-1s.449-1 1-1 1 .449 1 1-.449 1-1 1z"/><path d="m39 19c1.654 0 3-1.346 3-3s-1.346-3-3-3-3 1.346-3 3 1.346 3 3 3zm0-4c.551 0 1 .449 1 1s-.449 1-1 1-1-.449-1-1 .449-1 1-1z"/><path d="m41.349 26.728.554-2.216 1.354-1.354c1.769-1.77 2.743-4.121 2.743-6.622 0-2.547-.992-4.942-2.793-6.743s-4.196-2.793-6.743-2.793h-2.929c-2.547 0-4.942.992-6.743 2.793-1.8 1.801-2.792 4.196-2.792 6.743 0 2.501.974 4.853 2.743 6.621l1.354 1.354.554 2.216c.334 1.338 1.531 2.273 2.911 2.273h6.877c1.379 0 2.576-.935 2.91-2.272zm-10.758-.486-.688-2.753-1.746-1.746c-1.391-1.391-2.157-3.241-2.157-5.207 0-2.013.784-3.905 2.207-5.329s3.316-2.207 5.329-2.207h2.929c2.013 0 3.905.784 5.329 2.207s2.206 3.316 2.206 5.329c0 1.967-.766 3.816-2.157 5.207l-1.746 1.746-.688 2.753c-.112.446-.511.758-.971.758h-.438v-4h-2v4h-2v-4h-2v4h-.438c-.46 0-.859-.312-.971-.758z"/><path d="m61.744 46.942-2.851-10.263c-1.294-4.66-4.781-8.429-9.327-10.083l-1.59-.578c.781-1.088 1.376-2.302 1.705-3.62.212-.846.319-1.718.319-2.59v-4.406c0-3.06-1.035-6.076-2.913-8.49-2.922-3.757-7.328-5.912-12.087-5.912s-9.165 2.155-12.086 5.911c-1.879 2.415-2.914 5.431-2.914 8.491v4.264c-1.316-.933-3.252-.829-4.414.334l-.242.242-3.93-4.242c-1.289-1.29-3.539-1.29-4.828 0l-.586.586c-.645.644-1 1.502-1 2.414s.355 1.77.973 2.387l3.955 4.271-4.041 4.041c-3.151 3.151-4.887 7.342-4.887 11.799 0 3.774 1.299 7.476 3.657 10.424l.563.703c.193.242.482.375.78.375.111 0 .223-.019.331-.056.401-.141.669-.519.669-.944v-5.544c0-4.541 1.768-8.81 4.979-12.021l3.156-3.156 1.002 1.081c-1.337 1.762-2.145 3.844-2.348 6.076-.165 1.828-.42 3.296-.737 4.247-.311.933-.727 1.766-1.168 2.647-.926 1.853-1.884 3.767-1.884 6.67v3.36c0 2.558 2.082 4.64 4.64 4.64.286 0 .571-.032.851-.084l-.772 3.084h31.281 11.293l-1.36-5.23c.64-.222 1.223-.595 1.667-1.129l2.773-3.327c1.049-1.259 1.627-2.855 1.627-4.494 0-.635-.086-1.268-.256-1.878zm-41.194-21.078.45-.45c.134-.134.248-.283.357-.434.359.648.784 1.256 1.273 1.819l-.705.548zm-13.136-5.864c-.263-.263-.414-.628-.414-1s.151-.737.414-1l.586-.586c.526-.526 1.5-.499 1.973-.027l3.955 4.271-2.584 2.584zm3.151 13.021c-3.589 3.588-5.565 8.36-5.565 13.435v2.438c-1.3-2.234-2-4.796-2-7.396 0-3.923 1.527-7.611 4.301-10.385l9.699-9.699c.263-.263.628-.414 1-.414s.737.151 1 .414l.586.586c.263.263.414.628.414 1s-.151.737-.414 1zm8.57-5.742 9.41 10.161c-.47.221-.91.51-1.288.888l-1.489 1.489-9.218-9.954zm14.536 17.464c.294-.294.525-.631.725-.983l5.977 6.454-1.044 1.044c-.556.556-.93 1.238-1.138 1.974l-5.191-5.605v-2.213zm13.915 13.257c.263.263.414.628.414 1s-.151.737-.414 1l-.586.586c-.526.526-1.5.499-1.973.027l-1.58-1.706c.864-.175 1.659-.598 2.296-1.236l.799-.799zm-3.257-1.743c-.479.479-1.116.743-1.793.743-1.398 0-2.536-1.138-2.536-2.536 0-.677.264-1.314.743-1.793l1.088-1.088 4.662 2.51zm-15.584-2.24-.511-3.836 2.766-2.767v6.453c0 .625-.508 1.133-1.133 1.133-.565 0-1.048-.423-1.122-.983zm3.512-10.688-4.357 4.357-.844-6.328 1.615-1.615c.479-.479 1.116-.743 1.793-.743 1.398 0 2.536 1.138 2.536 2.536 0 .677-.264 1.314-.743 1.793zm-17.617 14.671c-1.456 0-2.64-1.184-2.64-2.64v-3.36c0-2.431.812-4.055 1.672-5.775.453-.905.92-1.841 1.276-2.909.37-1.111.65-2.692.832-4.699.157-1.734.76-3.356 1.744-4.757l6.358 6.865-6.234 2.338.702 1.873 2.756-1.034c-.548 1.485-1.106 3.407-1.106 5.098h2c0-2.149 1.164-4.955 1.661-6.055l1.514-.568 1.587 11.903c.06.452.226.866.456 1.234l-12.062 2.434c-.168.035-.342.052-.516.052zm3.02 1.484 12.405-2.504c1.634-.104 2.935-1.453 2.935-3.113v-3.296l5.525 5.966c.381.734.948 1.35 1.65 1.781l2.484 2.682h-25.378zm31.681 1.516c.422-.579.659-1.269.659-2 0-.912-.355-1.77-.973-2.387l-1.07-1.156.374-.374 4.578 2.465c.312.169.648.286.994.361l.804 3.091zm4.517-5.212-11.215-6.039c-.397-.213-.643-.626-.643-1.076 0-.242.071-.477.205-.678l4.596-6.894c.578-.867 1.377-1.572 2.309-2.039l2.337-1.168-.895-1.789-2.337 1.168c-1.243.622-2.308 1.562-3.079 2.718l-4.596 6.894c-.075.112-.138.231-.198.35l-5.351-5.778c-.04-2.314-1.821-4.191-4.088-4.414l-7.616-8.224.769-.598 8.269 7.518 1.346-1.479-8.831-8.028c-1.273-1.157-2.166-2.65-2.583-4.318-.17-.689-.257-1.397-.257-2.106v-4.406c0-2.618.885-5.197 2.492-7.263 2.54-3.266 6.37-5.139 10.508-5.139s7.968 1.873 10.508 5.14c1.607 2.065 2.492 4.644 2.492 7.262v4.406c0 .709-.087 1.417-.259 2.106-.417 1.667-1.31 3.161-2.583 4.318l-8.831 8.028 1.346 1.479 4.529-4.117c.513.53.798 1.224.798 1.963 0 .674-.242 1.327-.68 1.839l-5.079 5.925 1.519 1.302 5.079-5.925c.748-.874 1.161-1.99 1.161-3.141 0-1.241-.475-2.404-1.324-3.303l2.827-2.57c.026-.023.045-.051.071-.075l2.308.839c3.939 1.433 6.961 4.699 8.083 8.738l2.851 10.264c.053.192.09.387.12.584l-5.463-2.942-.948 1.761 6.25 3.365c-.193.649-.5 1.262-.939 1.789l-.427.512-10.151-5.466-.948 1.761 9.793 5.273-1.039 1.247c-.524.63-1.483.816-2.206.426z"/><path d="m15.68 47.178c-1.099 1.648-1.68 3.566-1.68 5.547v1.275h2v-1.275c0-1.585.465-3.12 1.344-4.438l.488-.733-1.664-1.108z"/><path d="m18 52h2v2h-2z"/></g></svg>