<svg id="Layer_1" enable-background="new 0 0 512.002 512.002" height="512" viewBox="0 0 512.002 512.002" width="512" xmlns="http://www.w3.org/2000/svg"><g><g><path d="m509.073 380.933-86.001-86.001c-1.663-1.585-4.073-2.945-7.071-2.929h-54.389c37.304-31.014 59.478-77.227 59.478-126.914 0-91.03-74.059-165.089-165.089-165.089s-165.089 74.059-165.089 165.089c0 49.688 22.173 95.9 59.478 126.914h-54.389c-2.294.054-4.965.799-7.071 2.929l-86.001 86.001c-3.905 3.905-3.905 10.237 0 14.143 3.906 3.905 10.236 3.905 14.143 0l68.93-68.93v155.857c0 16.542 13.458 30 30 30h280c16.542 0 30-13.458 30-30v-155.858l68.93 68.93c3.906 3.905 10.236 3.905 14.143 0 3.904-3.905 3.904-10.237-.002-14.142zm-109.252-68.93-33 66h-221.639l-33-66.001zm-288.909-146.914c0-80.002 65.087-145.089 145.089-145.089s145.089 65.087 145.089 145.089c0 52.89-28.6 101.287-74.784 126.914h-140.61c-46.183-25.627-74.784-74.023-74.784-126.914zm285.089 326.913h-280c-5.514 0-10-4.486-10-10v-10.001h34.995c5.522 0 10-4.477 10-10s-4.478-10-10-10h-34.995v-107.637l24.056 48.112c1.694 3.388 5.156 5.528 8.944 5.528h234c3.788 0 7.25-2.14 8.944-5.528l24.056-48.112v137.638c0 5.514-4.486 10-10 10z"/><path d="m331.001 119.104c0-20.031-7.802-38.864-21.969-53.031s-33.001-21.969-53.031-21.969-38.864 7.802-53.031 21.969-21.969 33-21.969 53.031c0 16.542 13.458 30 30 30s30-13.458 30-30c0-4.009 1.56-7.775 4.393-10.608 2.832-2.832 6.599-4.392 10.607-4.392s7.775 1.56 10.608 4.393c2.832 2.832 4.392 6.598 4.392 10.607 0 2.037-.376 3.969-1.118 5.745-.756 1.81-1.922 3.51-3.465 5.053-13.635 13.635-21.636 22.863-27.614 31.85-8.734 13.126-12.803 25.581-12.803 39.195 0 7.678 2.903 14.689 7.664 20.001-4.761 5.313-7.664 12.326-7.664 20.007 0 16.542 13.458 30 30 30s30-13.458 30-30v-.007c0-7.678-2.903-14.689-7.664-20 4.761-5.312 7.664-12.323 7.664-20 0-.901.475-2.688 2.733-6.084 4.261-6.403 12.555-14.986 20.107-22.538 7.015-7.016 12.523-15.243 16.371-24.454 3.842-9.196 5.789-18.874 5.789-28.768zm-65 121.851c0 5.514-4.486 10-10 10s-10-4.486-10-10.008c0-5.514 4.486-10 10-10s10 4.486 10 10zm40.757-100.793c-2.838 6.794-6.896 12.857-12.059 18.021-11.847 11.847-18.399 19.264-22.615 25.601-4.15 6.237-6.083 11.691-6.083 17.163 0 5.514-4.486 10-10 10s-10-4.486-10-10c0-9.619 2.916-18.29 9.454-28.116 5.196-7.811 12.47-16.151 25.105-28.787 3.395-3.395 6.012-7.259 7.777-11.485 1.767-4.23 2.663-8.757 2.663-13.455 0-9.352-3.641-18.142-10.25-24.75-6.609-6.61-15.398-10.25-24.75-10.25s-18.141 3.64-24.749 10.249c-6.61 6.609-10.251 15.399-10.251 24.75 0 5.514-4.486 10-10 10s-10-4.486-10-10c0-14.688 5.722-28.5 16.111-38.889 10.39-10.39 24.2-16.111 38.889-16.111s28.499 5.722 38.889 16.111 16.111 24.2 16.111 38.889c.001 7.234-1.427 14.319-4.242 21.059z"/><path d="m185.993 452.001c-5.522 0-10 4.477-10 10s4.478 10 10 10h.008c5.522 0 9.996-4.477 9.996-10s-4.481-10-10.004-10z"/></g></g></svg>