<svg id="Layer_1" enable-background="new 0 0 511.923 511.923" height="512" viewBox="0 0 511.923 511.923" width="512" xmlns="http://www.w3.org/2000/svg"><g><path d="m463.263 190.602c7.783-86.135-59.88-150.64-137.59-150.64-35.023 0-68.338 12.957-93.74 36.026-25.402-23.069-58.717-36.026-93.74-36.026-108.633 0-188.378 121.454-100.832 242.382 19.244 26.583 45.893 52.341 79.204 76.559 55.99 40.706 111.186 62.986 113.508 63.915 4.082 1.632 8.298 1.528 12.726-.354 41.726 30.216 82.811 46.963 86.289 48.354 3.797 1.518 8.133 1.558 12.076-.08 1.72-.714 42.582-17.844 83.958-49.082 24.702-18.65 44.484-38.516 58.796-59.045 46.25-66.346 32.343-137.275-20.655-172.009zm-325.07-118.64c31.566 0 61.299 13.614 81.574 37.352 6.383 7.473 17.948 7.475 24.332 0 20.275-23.737 50.008-37.352 81.574-37.352 58.238 0 106.553 46.405 106.249 104.56-33.87-9.164-71.665-1.871-99.989 22.256-19.638-16.729-44.789-26.076-71.17-26.076-84.47 0-148.264 94.712-80.082 189.621-231.841-134.246-149.475-290.361-42.488-290.361zm196.71 366.525c-64.646-28.888-150.97-87.432-150.97-158.673 0-41.417 34.466-75.111 76.83-75.111 22.837 0 44.343 9.845 59.003 27.01 6.384 7.474 17.949 7.475 24.334 0 14.66-17.166 36.166-27.01 59.003-27.01 42.364 0 76.83 33.695 76.83 75.111 0 86.03-116.919 145.6-145.03 158.673z"/></g></svg>