<svg height="512" viewBox="0 0 64 64" width="512" xmlns="http://www.w3.org/2000/svg"><g id="outline"><path d="m28 11h2v2h-2z"/><path d="m18 21h2v2h-2z"/><path d="m22 18h2v2h-2z"/><path d="m57 25h-6.051a18.974 18.974 0 0 0 -37.9 0h-6.049a5 5 0 0 0 0 10h8.586l3.707 3.707a1 1 0 0 0 .707.293h24a1 1 0 0 0 .707-.293l3.707-3.707h8.586a5 5 0 0 0 0-10zm-25-16a17.023 17.023 0 0 1 16.971 16h-2.022a15.007 15.007 0 0 0 -14.949-14v2a13.008 13.008 0 0 1 12.949 12h-29.92a17.023 17.023 0 0 1 16.971-16zm11.586 28h-23.172l-2-2h27.172zm13.414-4h-50a3 3 0 0 1 0-6h50a3 3 0 0 1 0 6z"/><path d="m10 29h2v2h-2z"/><path d="m16 29h2v2h-2z"/><path d="m22 29h2v2h-2z"/><path d="m28 29h2v2h-2z"/><path d="m34 29h2v2h-2z"/><path d="m40 29h2v2h-2z"/><path d="m46 29h2v2h-2z"/><path d="m52 29h2v2h-2z"/><path d="m42 40.738h2v15.524h-2z" transform="matrix(.966 -.258 .258 .966 -11.045 12.717)"/><path d="m13.238 47.5h15.524v2h-15.524z" transform="matrix(.258 -.966 .966 .258 -31.274 56.288)"/><path d="m31 41h2v12h-2z"/><path d="m20.28 50h10.44v2h-10.44z" transform="matrix(.287 -.958 .958 .287 -30.674 60.786)"/><path d="m37.5 45.78h2v10.44h-2z" transform="matrix(.958 -.287 .287 .958 -13.031 13.214)"/></g></svg>